<?xml version="1.0" encoding="UTF-8"?><svg xmlns="http://www.w3.org/2000/svg" xmlns:xlink="http://www.w3.org/1999/xlink" fill-opacity="1" color-rendering="auto" color-interpolation="auto" text-rendering="auto" stroke="black" stroke-linecap="square" width="865" stroke-miterlimit="10" shape-rendering="auto" stroke-opacity="1" fill="black" stroke-dasharray="none" font-weight="normal" stroke-width="1" height="706" font-family="'Dialog'" font-style="normal" stroke-linejoin="miter" font-size="12px" stroke-dashoffset="0" image-rendering="auto">
  <!--Generated by ySVG 2.5-->
  <defs id="genericDefs"/>
  <g>
    <g text-rendering="geometricPrecision" shape-rendering="geometricPrecision" transform="matrix(1.4743,0,0,1.4523,44.7767,394.2659)">
      <g clip-path="url(#clipPath3)">
        <svg xmlns:svg="http://www.w3.org/2000/svg" xmlns:sodipodi="http://sodipodi.sourceforge.net/DTD/sodipodi-0.dtd" xmlns:inkscape="http://www.inkscape.org/namespaces/inkscape" xmlns:dc="http://purl.org/dc/elements/1.1/" xmlns:cc="http://web.resource.org/cc/" xmlns:rdf="http://www.w3.org/1999/02/22-rdf-syntax-ns#" opacity="1" writing-mode="lr-tb" stop-color="rgb(0, 0, 0)" shape-rendering="auto" glyph-orientation-horizontal="0deg" color-profile="auto" lighting-color="rgb(255, 255, 255)" color="rgb(0, 0, 0)" font-weight="400" alignment-baseline="auto" font-style="normal" version="1.0" color-interpolation-filters="linearrgb" text-anchor="start" stroke-linecap="butt" color-interpolation="srgb" font-variant="normal" word-spacing="normal" fill-opacity="1" text-rendering="auto" clip-path="none" text-decoration="none" letter-spacing="normal" glyph-orientation-vertical="auto" display="inline" font-size-adjust="none" overflow="hidden" fill="rgb(0, 0, 0)" font-stretch="normal" stroke-dasharray="none" inkscape:version="0.45.1" id="svg1.svg2" stroke-miterlimit="4" stop-opacity="1" color-rendering="auto" font-size="12" sodipodi:docbase="C:\Daten\alberts\projects\yfx" pointer-events="visiblepainted" mask="none" direction="ltr" baseline-shift="baseline" sodipodi:docname="uml_actor.svg" enable-background="accumulate" fill-rule="nonzero" image-rendering="auto" stroke-dashoffset="0" inkscape:output_extension="org.inkscape.output.svg.inkscape" marker-end="none" width="41" clip="auto" cursor="auto" stroke="none" filter="none" visibility="visible" kerning="auto" stroke-width="1" font-family="&quot;Arial&quot;,&quot;Helvetica&quot;,sans-serif" flood-opacity="1" clip-rule="nonzero" src="none" height="68.997391" unicode-bidi="normal" sodipodi:version="0.32" stroke-linejoin="miter" stroke-opacity="1" flood-color="rgb(0, 0, 0)" dominant-baseline="auto" marker-start="none" marker-mid="none">
            
          <defs id="svg1.defs4">
            <clipPath clipPathUnits="userSpaceOnUse" id="clipPath1">
              <path d="M0 0 L865 0 L865 706 L0 706 L0 0 Z"/>
            </clipPath>
            <clipPath clipPathUnits="userSpaceOnUse" id="clipPath2">
              <path d="M-15 -15 L850 -15 L850 691 L-15 691 L-15 -15 Z"/>
            </clipPath>
            <clipPath clipPathUnits="userSpaceOnUse" id="clipPath3">
              <path d="M-30.3713 -271.4753 L556.3446 -271.4753 L556.3446 214.6474 L-30.3713 214.6474 L-30.3713 -271.4753 Z"/>
            </clipPath>
            <clipPath clipPathUnits="userSpaceOnUse" id="clipPath4">
              <path d="M-30.3713 -166.0343 L556.3446 -166.0343 L556.3446 320.0884 L-30.3713 320.0884 L-30.3713 -166.0343 Z"/>
            </clipPath>
            <clipPath clipPathUnits="userSpaceOnUse" id="clipPath5">
              <path d="M-30.3713 -10.3284 L556.3446 -10.3284 L556.3446 475.7943 L-30.3713 475.7943 L-30.3713 -10.3284 Z"/>
            </clipPath>
            <clipPath clipPathUnits="userSpaceOnUse" id="clipPath6">
              <path d="M-202.864 -92.4848 L383.8519 -92.4848 L383.8519 393.6378 L-202.864 393.6378 L-202.864 -92.4848 Z"/>
            </clipPath>
            <clipPath clipPathUnits="userSpaceOnUse" id="clipPath7">
              <path d="M366.3074 152.8165 L366.3074 190 L462.3074 190 L462.3074 152.8165 Z"/>
            </clipPath>
            <clipPath clipPathUnits="userSpaceOnUse" id="clipPath8">
              <path d="M-270.6925 -162.3736 L316.0235 -162.3736 L316.0235 323.7491 L-270.6925 323.7491 L-270.6925 -162.3736 Z"/>
            </clipPath>
            <clipPath clipPathUnits="userSpaceOnUse" id="clipPath9">
              <path d="M606.2034 279.3165 L606.2034 317 L702.2034 317 L702.2034 279.3165 Z"/>
            </clipPath>
            <clipPath clipPathUnits="userSpaceOnUse" id="clipPath10">
              <path d="M-346.9642 -390.4697 L239.7518 -390.4697 L239.7518 95.653 L-346.9642 95.653 L-346.9642 -390.4697 Z"/>
            </clipPath>
            <clipPath clipPathUnits="userSpaceOnUse" id="clipPath11">
              <path d="M-346.9642 -285.0286 L239.7518 -285.0286 L239.7518 201.0941 L-346.9642 201.0941 L-346.9642 -285.0286 Z"/>
            </clipPath>
            <clipPath clipPathUnits="userSpaceOnUse" id="clipPath12">
              <path d="M-346.9642 -74.1465 L239.7518 -74.1465 L239.7518 411.9762 L-346.9642 411.9762 L-346.9642 -74.1465 Z"/>
            </clipPath>
            <clipPath clipPathUnits="userSpaceOnUse" id="clipPath13">
              <path d="M12 158.1329 L12 196 L108 196 L108 158.1329 Z"/>
            </clipPath>
            <clipPath clipPathUnits="userSpaceOnUse" id="clipPath14">
              <path d="M-346.9642 -179.5875 L239.7518 -179.5875 L239.7518 306.5352 L-346.9642 306.5352 L-346.9642 -179.5875 Z"/>
            </clipPath>
          </defs>
            
  
          <metadata id="svg1.metadata7">
    
  </metadata>
            
          <g inkscape:groupmode="layer" id="svg1.layer1" transform="translate(-29.5,-42.959476)" inkscape:label="Ebene 1">
                
            <a id="svg1.a3142" transform="matrix(1.0873906,0,0,1,-4.4741999,0)">
                    
              <path transform="translate(11.586889,5.2908993)" style="fill:none;fill-rule:evenodd;stroke:#000000;stroke-width:1px;stroke-linecap:butt;stroke-linejoin:miter;stroke-opacity:1" sodipodi:cx="38.509369" sodipodi:cy="47.36993" sodipodi:rx="8.5197716" id="svg1.path2160" d="M 47.02914 47.36993 A 8.5197716 9.2013531 0 1 1  29.989597,47.36993 A 8.5197716 9.2013531 0 1 1  47.02914 47.36993 z" sodipodi:ry="9.2013531" sodipodi:type="arc"/>
                  
            </a>
                
            <path style="fill:none" sodipodi:cx="43.962021" sodipodi:cy="48.392303" d="M 47.71072 48.392303 A 3.7486994 0 0 1 1  40.213321,48.392303 A 3.7486994 0 0 1 1  47.71072 48.392303 z" id="svg1.path3134" sodipodi:rx="3.7486994" sodipodi:ry="0" sodipodi:type="arc"/>
                
            <path style="fill:none;fill-rule:evenodd;stroke:#000000;stroke-width:1.24319649px;stroke-linecap:butt;stroke-linejoin:miter;stroke-opacity:1" d="M 50,61.33709 C 50,91.363211 50,92.247838 50,92.247838" id="svg1.path3136"/>
                
            <path style="fill:none;fill-rule:evenodd;stroke:#000000;stroke-width:1px;stroke-linecap:butt;stroke-linejoin:miter;stroke-opacity:1" d="M 69.760668,72.362183 C 69.760668,72.362183 69.760668,72.362183 50.239332,72.362183 C 30.239332,72.362183 30.239332,72.362183 30.239332,72.362183 L 30.239332,72.362183" id="svg1.path3138"/>
                
            <path style="fill:none;fill-rule:evenodd;stroke:#000000;stroke-width:1px;stroke-linecap:butt;stroke-linejoin:miter;stroke-opacity:1" d="M 30,111.45687 C 30,111.45687 30,111.45687 50,92.013532 C 70,111.45687 70,111.45687 70,111.45687" id="svg1.path3140"/>
              
          </g>
          
        </svg>
      </g>
    </g>
    <g font-size="13px" stroke-linecap="butt" transform="matrix(1,0,0,1,15,15)" text-rendering="geometricPrecision" font-family="sans-serif" shape-rendering="geometricPrecision" stroke-miterlimit="1.45">
      <text x="46.5906" xml:space="preserve" y="497.3328" clip-path="url(#clipPath2)" stroke="none">wife</text>
    </g>
    <g fill="rgb(255,204,0)" text-rendering="geometricPrecision" shape-rendering="geometricPrecision" transform="matrix(1,0,0,1,15,15)" stroke="rgb(255,204,0)">
      <ellipse rx="55" ry="25" clip-path="url(#clipPath2)" cx="190" cy="313.6329" stroke="none"/>
    </g>
    <g font-size="13px" stroke-linecap="butt" transform="matrix(1,0,0,1,15,15)" text-rendering="geometricPrecision" font-family="sans-serif" shape-rendering="geometricPrecision" stroke-miterlimit="1.45">
      <text x="170.7539" xml:space="preserve" y="318.1334" clip-path="url(#clipPath2)" stroke="none">SOHO</text>
      <ellipse rx="55" fill="none" ry="25" clip-path="url(#clipPath2)" cx="190" cy="313.6329"/>
    </g>
    <g text-rendering="geometricPrecision" shape-rendering="geometricPrecision" transform="matrix(1.4743,0,0,1.4523,44.7767,241.1329)">
      <g clip-path="url(#clipPath4)">
        <svg xmlns:svg="http://www.w3.org/2000/svg" xmlns:sodipodi="http://sodipodi.sourceforge.net/DTD/sodipodi-0.dtd" xmlns:inkscape="http://www.inkscape.org/namespaces/inkscape" xmlns:dc="http://purl.org/dc/elements/1.1/" xmlns:cc="http://web.resource.org/cc/" xmlns:rdf="http://www.w3.org/1999/02/22-rdf-syntax-ns#" opacity="1" writing-mode="lr-tb" stop-color="rgb(0, 0, 0)" shape-rendering="auto" glyph-orientation-horizontal="0deg" color-profile="auto" lighting-color="rgb(255, 255, 255)" color="rgb(0, 0, 0)" font-weight="400" alignment-baseline="auto" font-style="normal" version="1.0" color-interpolation-filters="linearrgb" text-anchor="start" stroke-linecap="butt" color-interpolation="srgb" font-variant="normal" word-spacing="normal" fill-opacity="1" text-rendering="auto" clip-path="none" text-decoration="none" letter-spacing="normal" glyph-orientation-vertical="auto" display="inline" font-size-adjust="none" overflow="hidden" fill="rgb(0, 0, 0)" font-stretch="normal" stroke-dasharray="none" inkscape:version="0.45.1" id="svg2.svg2" stroke-miterlimit="4" stop-opacity="1" color-rendering="auto" font-size="12" sodipodi:docbase="C:\Daten\alberts\projects\yfx" pointer-events="visiblepainted" mask="none" direction="ltr" baseline-shift="baseline" sodipodi:docname="uml_actor.svg" enable-background="accumulate" fill-rule="nonzero" image-rendering="auto" stroke-dashoffset="0" inkscape:output_extension="org.inkscape.output.svg.inkscape" marker-end="none" width="41" clip="auto" cursor="auto" stroke="none" filter="none" visibility="visible" kerning="auto" stroke-width="1" font-family="&quot;Arial&quot;,&quot;Helvetica&quot;,sans-serif" flood-opacity="1" clip-rule="nonzero" src="none" height="68.997391" unicode-bidi="normal" sodipodi:version="0.32" stroke-linejoin="miter" stroke-opacity="1" flood-color="rgb(0, 0, 0)" dominant-baseline="auto" marker-start="none" marker-mid="none">
            
          <defs id="svg2.defs4"/>
            
  
          <metadata id="svg2.metadata7">
    
  </metadata>
            
          <g inkscape:groupmode="layer" id="svg2.layer1" transform="translate(-29.5,-42.959476)" inkscape:label="Ebene 1">
                
            <a id="svg2.a3142" transform="matrix(1.0873906,0,0,1,-4.4741999,0)">
                    
              <path transform="translate(11.586889,5.2908993)" style="fill:none;fill-rule:evenodd;stroke:#000000;stroke-width:1px;stroke-linecap:butt;stroke-linejoin:miter;stroke-opacity:1" sodipodi:cx="38.509369" sodipodi:cy="47.36993" sodipodi:rx="8.5197716" id="svg2.path2160" d="M 47.02914 47.36993 A 8.5197716 9.2013531 0 1 1  29.989597,47.36993 A 8.5197716 9.2013531 0 1 1  47.02914 47.36993 z" sodipodi:ry="9.2013531" sodipodi:type="arc"/>
                  
            </a>
                
            <path style="fill:none" sodipodi:cx="43.962021" sodipodi:cy="48.392303" d="M 47.71072 48.392303 A 3.7486994 0 0 1 1  40.213321,48.392303 A 3.7486994 0 0 1 1  47.71072 48.392303 z" id="svg2.path3134" sodipodi:rx="3.7486994" sodipodi:ry="0" sodipodi:type="arc"/>
                
            <path style="fill:none;fill-rule:evenodd;stroke:#000000;stroke-width:1.24319649px;stroke-linecap:butt;stroke-linejoin:miter;stroke-opacity:1" d="M 50,61.33709 C 50,91.363211 50,92.247838 50,92.247838" id="svg2.path3136"/>
                
            <path style="fill:none;fill-rule:evenodd;stroke:#000000;stroke-width:1px;stroke-linecap:butt;stroke-linejoin:miter;stroke-opacity:1" d="M 69.760668,72.362183 C 69.760668,72.362183 69.760668,72.362183 50.239332,72.362183 C 30.239332,72.362183 30.239332,72.362183 30.239332,72.362183 L 30.239332,72.362183" id="svg2.path3138"/>
                
            <path style="fill:none;fill-rule:evenodd;stroke:#000000;stroke-width:1px;stroke-linecap:butt;stroke-linejoin:miter;stroke-opacity:1" d="M 30,111.45687 C 30,111.45687 30,111.45687 50,92.013532 C 70,111.45687 70,111.45687 70,111.45687" id="svg2.path3140"/>
              
          </g>
          
        </svg>
      </g>
    </g>
    <g font-size="13px" stroke-linecap="butt" transform="matrix(1,0,0,1,15,15)" text-rendering="geometricPrecision" font-family="sans-serif" shape-rendering="geometricPrecision" stroke-miterlimit="1.45">
      <text x="32.0195" xml:space="preserve" y="344.1998" clip-path="url(#clipPath2)" stroke="none">husband</text>
    </g>
    <g text-rendering="geometricPrecision" shape-rendering="geometricPrecision" transform="matrix(1.4743,0,0,1.4523,44.7767,15)">
      <g clip-path="url(#clipPath5)">
        <svg xmlns:svg="http://www.w3.org/2000/svg" xmlns:sodipodi="http://sodipodi.sourceforge.net/DTD/sodipodi-0.dtd" xmlns:inkscape="http://www.inkscape.org/namespaces/inkscape" xmlns:dc="http://purl.org/dc/elements/1.1/" xmlns:cc="http://web.resource.org/cc/" xmlns:rdf="http://www.w3.org/1999/02/22-rdf-syntax-ns#" opacity="1" writing-mode="lr-tb" stop-color="rgb(0, 0, 0)" shape-rendering="auto" glyph-orientation-horizontal="0deg" color-profile="auto" lighting-color="rgb(255, 255, 255)" color="rgb(0, 0, 0)" font-weight="400" alignment-baseline="auto" font-style="normal" version="1.0" color-interpolation-filters="linearrgb" text-anchor="start" stroke-linecap="butt" color-interpolation="srgb" font-variant="normal" word-spacing="normal" fill-opacity="1" text-rendering="auto" clip-path="none" text-decoration="none" letter-spacing="normal" glyph-orientation-vertical="auto" display="inline" font-size-adjust="none" overflow="hidden" fill="rgb(0, 0, 0)" font-stretch="normal" stroke-dasharray="none" inkscape:version="0.45.1" id="svg3.svg2" stroke-miterlimit="4" stop-opacity="1" color-rendering="auto" font-size="12" sodipodi:docbase="C:\Daten\alberts\projects\yfx" pointer-events="visiblepainted" mask="none" direction="ltr" baseline-shift="baseline" sodipodi:docname="uml_actor.svg" enable-background="accumulate" fill-rule="nonzero" image-rendering="auto" stroke-dashoffset="0" inkscape:output_extension="org.inkscape.output.svg.inkscape" marker-end="none" width="41" clip="auto" cursor="auto" stroke="none" filter="none" visibility="visible" kerning="auto" stroke-width="1" font-family="&quot;Arial&quot;,&quot;Helvetica&quot;,sans-serif" flood-opacity="1" clip-rule="nonzero" src="none" height="68.997391" unicode-bidi="normal" sodipodi:version="0.32" stroke-linejoin="miter" stroke-opacity="1" flood-color="rgb(0, 0, 0)" dominant-baseline="auto" marker-start="none" marker-mid="none">
            
          <defs id="svg3.defs4"/>
            
  
          <metadata id="svg3.metadata7">
    
  </metadata>
            
          <g inkscape:groupmode="layer" id="svg3.layer1" transform="translate(-29.5,-42.959476)" inkscape:label="Ebene 1">
                
            <a id="svg3.a3142" transform="matrix(1.0873906,0,0,1,-4.4741999,0)">
                    
              <path transform="translate(11.586889,5.2908993)" style="fill:none;fill-rule:evenodd;stroke:#000000;stroke-width:1px;stroke-linecap:butt;stroke-linejoin:miter;stroke-opacity:1" sodipodi:cx="38.509369" sodipodi:cy="47.36993" sodipodi:rx="8.5197716" id="svg3.path2160" d="M 47.02914 47.36993 A 8.5197716 9.2013531 0 1 1  29.989597,47.36993 A 8.5197716 9.2013531 0 1 1  47.02914 47.36993 z" sodipodi:ry="9.2013531" sodipodi:type="arc"/>
                  
            </a>
                
            <path style="fill:none" sodipodi:cx="43.962021" sodipodi:cy="48.392303" d="M 47.71072 48.392303 A 3.7486994 0 0 1 1  40.213321,48.392303 A 3.7486994 0 0 1 1  47.71072 48.392303 z" id="svg3.path3134" sodipodi:rx="3.7486994" sodipodi:ry="0" sodipodi:type="arc"/>
                
            <path style="fill:none;fill-rule:evenodd;stroke:#000000;stroke-width:1.24319649px;stroke-linecap:butt;stroke-linejoin:miter;stroke-opacity:1" d="M 50,61.33709 C 50,91.363211 50,92.247838 50,92.247838" id="svg3.path3136"/>
                
            <path style="fill:none;fill-rule:evenodd;stroke:#000000;stroke-width:1px;stroke-linecap:butt;stroke-linejoin:miter;stroke-opacity:1" d="M 69.760668,72.362183 C 69.760668,72.362183 69.760668,72.362183 50.239332,72.362183 C 30.239332,72.362183 30.239332,72.362183 30.239332,72.362183 L 30.239332,72.362183" id="svg3.path3138"/>
                
            <path style="fill:none;fill-rule:evenodd;stroke:#000000;stroke-width:1px;stroke-linecap:butt;stroke-linejoin:miter;stroke-opacity:1" d="M 30,111.45687 C 30,111.45687 30,111.45687 50,92.013532 C 70,111.45687 70,111.45687 70,111.45687" id="svg3.path3140"/>
              
          </g>
          
        </svg>
      </g>
    </g>
    <g font-size="13px" stroke-linecap="butt" transform="matrix(1,0,0,1,15,15)" text-rendering="geometricPrecision" font-family="sans-serif" shape-rendering="geometricPrecision" stroke-miterlimit="1.45">
      <text x="44.5688" xml:space="preserve" y="118.0669" clip-path="url(#clipPath2)" stroke="none">child</text>
    </g>
    <g fill="rgb(255,204,0)" text-rendering="geometricPrecision" shape-rendering="geometricPrecision" transform="matrix(1,0,0,1,15,15)" stroke="rgb(255,204,0)">
      <ellipse rx="55" ry="25" clip-path="url(#clipPath2)" cx="190" cy="169.3165" stroke="none"/>
    </g>
    <g font-size="13px" stroke-linecap="butt" transform="matrix(1,0,0,1,15,15)" text-rendering="geometricPrecision" font-family="sans-serif" shape-rendering="geometricPrecision" stroke-miterlimit="1.45">
      <text x="151.5713" xml:space="preserve" y="173.817" clip-path="url(#clipPath2)" stroke="none">roof terrace</text>
      <ellipse rx="55" fill="none" ry="25" clip-path="url(#clipPath2)" cx="190" cy="169.3165"/>
    </g>
    <g fill="rgb(255,204,0)" text-rendering="geometricPrecision" shape-rendering="geometricPrecision" transform="matrix(1,0,0,1,15,15)" stroke="rgb(255,204,0)">
      <ellipse rx="55" ry="25" clip-path="url(#clipPath2)" cx="190" cy="25" stroke="none"/>
    </g>
    <g font-size="13px" stroke-linecap="butt" transform="matrix(1,0,0,1,15,15)" text-rendering="geometricPrecision" font-family="sans-serif" shape-rendering="geometricPrecision" stroke-miterlimit="1.45">
      <text x="122.6926" xml:space="preserve" y="29.5005" clip-path="url(#clipPath2)" stroke="none">game &amp; social space</text>
      <ellipse rx="55" fill="none" ry="25" clip-path="url(#clipPath2)" cx="190" cy="25"/>
    </g>
    <g text-rendering="geometricPrecision" shape-rendering="geometricPrecision" transform="matrix(1.4743,0,0,1.4523,299.0841,134.3165)">
      <g clip-path="url(#clipPath6)">
        <svg xmlns:svg="http://www.w3.org/2000/svg" xmlns:sodipodi="http://sodipodi.sourceforge.net/DTD/sodipodi-0.dtd" xmlns:inkscape="http://www.inkscape.org/namespaces/inkscape" xmlns:dc="http://purl.org/dc/elements/1.1/" xmlns:cc="http://web.resource.org/cc/" xmlns:rdf="http://www.w3.org/1999/02/22-rdf-syntax-ns#" opacity="1" writing-mode="lr-tb" stop-color="rgb(0, 0, 0)" shape-rendering="auto" glyph-orientation-horizontal="0deg" color-profile="auto" lighting-color="rgb(255, 255, 255)" color="rgb(0, 0, 0)" font-weight="400" alignment-baseline="auto" font-style="normal" version="1.0" color-interpolation-filters="linearrgb" text-anchor="start" stroke-linecap="butt" color-interpolation="srgb" font-variant="normal" word-spacing="normal" fill-opacity="1" text-rendering="auto" clip-path="none" text-decoration="none" letter-spacing="normal" glyph-orientation-vertical="auto" display="inline" font-size-adjust="none" overflow="hidden" fill="rgb(0, 0, 0)" font-stretch="normal" stroke-dasharray="none" inkscape:version="0.45.1" id="svg4.svg2" stroke-miterlimit="4" stop-opacity="1" color-rendering="auto" font-size="12" sodipodi:docbase="C:\Daten\alberts\projects\yfx" pointer-events="visiblepainted" mask="none" direction="ltr" baseline-shift="baseline" sodipodi:docname="uml_actor.svg" enable-background="accumulate" fill-rule="nonzero" image-rendering="auto" stroke-dashoffset="0" inkscape:output_extension="org.inkscape.output.svg.inkscape" marker-end="none" width="41" clip="auto" cursor="auto" stroke="none" filter="none" visibility="visible" kerning="auto" stroke-width="1" font-family="&quot;Arial&quot;,&quot;Helvetica&quot;,sans-serif" flood-opacity="1" clip-rule="nonzero" src="none" height="68.997391" unicode-bidi="normal" sodipodi:version="0.32" stroke-linejoin="miter" stroke-opacity="1" flood-color="rgb(0, 0, 0)" dominant-baseline="auto" marker-start="none" marker-mid="none">
            
          <defs id="svg4.defs4"/>
            
  
          <metadata id="svg4.metadata7">
    
  </metadata>
            
          <g inkscape:groupmode="layer" id="svg4.layer1" transform="translate(-29.5,-42.959476)" inkscape:label="Ebene 1">
                
            <a id="svg4.a3142" transform="matrix(1.0873906,0,0,1,-4.4741999,0)">
                    
              <path transform="translate(11.586889,5.2908993)" style="fill:none;fill-rule:evenodd;stroke:#000000;stroke-width:1px;stroke-linecap:butt;stroke-linejoin:miter;stroke-opacity:1" sodipodi:cx="38.509369" sodipodi:cy="47.36993" sodipodi:rx="8.5197716" id="svg4.path2160" d="M 47.02914 47.36993 A 8.5197716 9.2013531 0 1 1  29.989597,47.36993 A 8.5197716 9.2013531 0 1 1  47.02914 47.36993 z" sodipodi:ry="9.2013531" sodipodi:type="arc"/>
                  
            </a>
                
            <path style="fill:none" sodipodi:cx="43.962021" sodipodi:cy="48.392303" d="M 47.71072 48.392303 A 3.7486994 0 0 1 1  40.213321,48.392303 A 3.7486994 0 0 1 1  47.71072 48.392303 z" id="svg4.path3134" sodipodi:rx="3.7486994" sodipodi:ry="0" sodipodi:type="arc"/>
                
            <path style="fill:none;fill-rule:evenodd;stroke:#000000;stroke-width:1.24319649px;stroke-linecap:butt;stroke-linejoin:miter;stroke-opacity:1" d="M 50,61.33709 C 50,91.363211 50,92.247838 50,92.247838" id="svg4.path3136"/>
                
            <path style="fill:none;fill-rule:evenodd;stroke:#000000;stroke-width:1px;stroke-linecap:butt;stroke-linejoin:miter;stroke-opacity:1" d="M 69.760668,72.362183 C 69.760668,72.362183 69.760668,72.362183 50.239332,72.362183 C 30.239332,72.362183 30.239332,72.362183 30.239332,72.362183 L 30.239332,72.362183" id="svg4.path3138"/>
                
            <path style="fill:none;fill-rule:evenodd;stroke:#000000;stroke-width:1px;stroke-linecap:butt;stroke-linejoin:miter;stroke-opacity:1" d="M 30,111.45687 C 30,111.45687 30,111.45687 50,92.013532 C 70,111.45687 70,111.45687 70,111.45687" id="svg4.path3140"/>
              
          </g>
          
        </svg>
      </g>
    </g>
    <g font-size="13px" stroke-linecap="butt" transform="matrix(1,0,0,1,15,15)" text-rendering="geometricPrecision" font-family="sans-serif" shape-rendering="geometricPrecision" stroke-miterlimit="1.45">
      <text x="269.2041" xml:space="preserve" y="237.3834" clip-path="url(#clipPath2)" stroke="none">family council</text>
    </g>
    <g fill="rgb(255,204,0)" text-rendering="geometricPrecision" shape-rendering="geometricPrecision" transform="matrix(1,0,0,1,15,15)" stroke="rgb(255,204,0)">
      <rect x="365" width="98" height="41" y="148" clip-path="url(#clipPath2)" stroke="none"/>
      <rect x="364" y="147" clip-path="url(#clipPath2)" fill="yellow" width="1" height="43" stroke="none"/>
      <rect x="365" y="147" clip-path="url(#clipPath2)" fill="yellow" width="98" height="1" stroke="none"/>
      <rect x="365" y="189" clip-path="url(#clipPath2)" fill="rgb(178,142,0)" width="99" height="1" stroke="none"/>
      <rect x="463" y="147" clip-path="url(#clipPath2)" fill="rgb(178,142,0)" width="1" height="42" stroke="none"/>
      <path fill="black" d="M376.6101 163.8521 L376.6101 167.5865 L374.3445 167.5865 L374.3445 157.774 L376.6101 157.774 L376.6101 158.8209 Q377.0789 158.1959 377.657 157.899 Q378.2351 157.6021 378.9695 157.6021 Q380.282 157.6021 381.1257 158.649 Q381.9695 159.6959 381.9695 161.3365 Q381.9695 162.9771 381.1257 164.024 Q380.282 165.0709 378.9695 165.0709 Q378.2351 165.0709 377.657 164.774 Q377.0789 164.4771 376.6101 163.8521 ZM378.1257 159.2584 Q377.3914 159.2584 377.0007 159.7896 Q376.6101 160.3209 376.6101 161.3365 Q376.6101 162.3365 377.0007 162.8834 Q377.3914 163.4146 378.1257 163.4146 Q378.8601 163.4146 379.2351 162.8834 Q379.6257 162.3521 379.6257 161.3365 Q379.6257 160.3209 379.2351 159.7896 Q378.8601 159.2584 378.1257 159.2584 ZM390.7439 161.3052 L390.7439 161.9615 L385.4314 161.9615 Q385.5095 162.7584 386.0095 163.1646 Q386.5095 163.5552 387.4001 163.5552 Q388.1033 163.5552 388.8533 163.3521 Q389.6189 163.1334 390.4158 162.6959 L390.4158 164.4459 Q389.6033 164.7584 388.7908 164.9146 Q387.9939 165.0709 387.1814 165.0709 Q385.2595 165.0709 384.1814 164.0865 Q383.1189 163.1021 383.1189 161.3365 Q383.1189 159.6021 384.1658 158.6021 Q385.2126 157.6021 387.0564 157.6021 Q388.7283 157.6021 389.7283 158.6177 Q390.7439 159.6177 390.7439 161.3052 ZM388.4158 160.5552 Q388.4158 159.899 388.0251 159.5084 Q387.6501 159.1177 387.0408 159.1177 Q386.3845 159.1177 385.9626 159.4927 Q385.5564 159.8521 385.4626 160.5552 L388.4158 160.5552 ZM399.6077 160.5552 L399.6077 164.8834 L397.3264 164.8834 L397.3264 164.1802 L397.3264 161.5709 Q397.3264 160.649 397.2795 160.3052 Q397.2483 159.9459 397.1389 159.7896 Q397.0139 159.5709 396.7795 159.4459 Q396.5608 159.3209 396.2639 159.3209 Q395.5452 159.3209 395.1389 159.8677 Q394.7327 160.4146 394.7327 161.3834 L394.7327 164.8834 L392.467 164.8834 L392.467 157.774 L394.7327 157.774 L394.7327 158.8209 Q395.2483 158.1959 395.8264 157.899 Q396.4045 157.6021 397.1077 157.6021 Q398.342 157.6021 398.967 158.3677 Q399.6077 159.1177 399.6077 160.5552 ZM404.2063 155.7584 L404.2063 157.774 L406.55 157.774 L406.55 159.399 L404.2063 159.399 L404.2063 162.4146 Q404.2063 162.9146 404.3938 163.0865 Q404.5969 163.2584 405.175 163.2584 L406.3469 163.2584 L406.3469 164.8834 L404.3938 164.8834 Q403.05 164.8834 402.4875 164.3209 Q401.925 163.7584 401.925 162.4146 L401.925 159.399 L400.8 159.399 L400.8 157.774 L401.925 157.774 L401.925 155.7584 L404.2063 155.7584 ZM415.0769 160.5552 L415.0769 164.8834 L412.7957 164.8834 L412.7957 164.1802 L412.7957 161.5865 Q412.7957 160.649 412.7488 160.3052 Q412.7175 159.9459 412.6082 159.7896 Q412.4832 159.5709 412.2488 159.4459 Q412.03 159.3209 411.7332 159.3209 Q411.0144 159.3209 410.6082 159.8677 Q410.2019 160.4146 410.2019 161.3834 L410.2019 164.8834 L407.9363 164.8834 L407.9363 155.0084 L410.2019 155.0084 L410.2019 158.8209 Q410.7175 158.1959 411.2957 157.899 Q411.8738 157.6021 412.5769 157.6021 Q413.8113 157.6021 414.4363 158.3677 Q415.0769 159.1177 415.0769 160.5552 ZM420.5662 159.2271 Q419.8162 159.2271 419.4099 159.774 Q419.0193 160.3052 419.0193 161.3365 Q419.0193 162.3521 419.4099 162.899 Q419.8162 163.4459 420.5662 163.4459 Q421.3162 163.4459 421.7068 162.899 Q422.0974 162.3521 422.0974 161.3365 Q422.0974 160.3052 421.7068 159.774 Q421.3162 159.2271 420.5662 159.2271 ZM420.5662 157.6021 Q422.4099 157.6021 423.4412 158.6021 Q424.4724 159.5865 424.4724 161.3365 Q424.4724 163.0865 423.4412 164.0865 Q422.4099 165.0709 420.5662 165.0709 Q418.738 165.0709 417.6912 164.0865 Q416.6599 163.0865 416.6599 161.3365 Q416.6599 159.5865 417.6912 158.6021 Q418.738 157.6021 420.5662 157.6021 ZM426.0442 162.1177 L426.0442 157.774 L428.3254 157.774 L428.3254 158.4771 Q428.3254 159.0552 428.3098 159.9302 Q428.3098 160.8052 428.3098 161.1021 Q428.3098 161.9615 428.3567 162.3365 Q428.4036 162.7115 428.5129 162.8834 Q428.6536 163.1021 428.8723 163.2271 Q429.1067 163.3521 429.4036 163.3521 Q430.1067 163.3521 430.5129 162.8052 Q430.9192 162.2584 430.9192 161.2896 L430.9192 157.774 L433.1848 157.774 L433.1848 164.8834 L430.9192 164.8834 L430.9192 163.8521 Q430.4036 164.4771 429.8254 164.774 Q429.2629 165.0709 428.5598 165.0709 Q427.3254 165.0709 426.6848 164.3209 Q426.0442 163.5552 426.0442 162.1177 ZM440.9241 157.9927 L440.9241 159.7271 Q440.2053 159.4146 439.5178 159.274 Q438.8459 159.1177 438.2366 159.1177 Q437.5959 159.1177 437.2678 159.274 Q436.9553 159.4302 436.9553 159.774 Q436.9553 160.0396 437.1897 160.1959 Q437.4397 160.3365 438.0491 160.4146 L438.4553 160.4615 Q440.2053 160.6802 440.7991 161.1959 Q441.4084 161.6959 441.4084 162.7896 Q441.4084 163.9302 440.5647 164.5084 Q439.7366 165.0709 438.0647 165.0709 Q437.3616 165.0709 436.6116 164.9615 Q435.8616 164.8521 435.0647 164.6177 L435.0647 162.899 Q435.7366 163.2271 436.4553 163.399 Q437.1741 163.5552 437.9084 163.5552 Q438.5803 163.5552 438.9084 163.3834 Q439.2522 163.1959 439.2522 162.8209 Q439.2522 162.524 439.0178 162.3834 Q438.7834 162.2271 438.0959 162.1334 L437.6897 162.0865 Q436.1741 161.899 435.5647 161.3834 Q434.9553 160.8677 434.9553 159.8209 Q434.9553 158.6959 435.7209 158.149 Q436.5022 157.6021 438.1116 157.6021 Q438.7366 157.6021 439.4241 157.6959 Q440.1116 157.7896 440.9241 157.9927 ZM450.2087 161.3052 L450.2087 161.9615 L444.8962 161.9615 Q444.9744 162.7584 445.4744 163.1646 Q445.9744 163.5552 446.865 163.5552 Q447.5681 163.5552 448.3181 163.3521 Q449.0837 163.1334 449.8806 162.6959 L449.8806 164.4459 Q449.0681 164.7584 448.2556 164.9146 Q447.4587 165.0709 446.6462 165.0709 Q444.7244 165.0709 443.6462 164.0865 Q442.5837 163.1021 442.5837 161.3365 Q442.5837 159.6021 443.6306 158.6021 Q444.6775 157.6021 446.5212 157.6021 Q448.1931 157.6021 449.1931 158.6177 Q450.2087 159.6177 450.2087 161.3052 ZM447.8806 160.5552 Q447.8806 159.899 447.49 159.5084 Q447.115 159.1177 446.5056 159.1177 Q445.8494 159.1177 445.4275 159.4927 Q445.0212 159.8521 444.9275 160.5552 L447.8806 160.5552 Z" clip-path="url(#clipPath7)" stroke="none"/>
      <path fill="black" d="M392.1836 173.1255 L392.1836 174.9849 Q391.7148 174.6724 391.2461 174.5162 Q390.7773 174.3599 390.2773 174.3599 Q389.3242 174.3599 388.793 174.9224 Q388.2617 175.4693 388.2617 176.4693 Q388.2617 177.4693 388.793 178.0318 Q389.3242 178.5787 390.2773 178.5787 Q390.8086 178.5787 391.293 178.4224 Q391.7773 178.2505 392.1836 177.9537 L392.1836 179.813 Q391.6367 180.0005 391.0898 180.0943 Q390.543 180.2037 389.9961 180.2037 Q388.0742 180.2037 386.9805 179.2193 Q385.9023 178.2193 385.9023 176.4693 Q385.9023 174.7037 386.9805 173.7193 Q388.0742 172.7349 389.9961 172.7349 Q390.5586 172.7349 391.0898 172.8443 Q391.6367 172.938 392.1836 173.1255 ZM397.5146 174.3599 Q396.7646 174.3599 396.3584 174.9068 Q395.9678 175.438 395.9678 176.4693 Q395.9678 177.4849 396.3584 178.0318 Q396.7646 178.5787 397.5146 178.5787 Q398.2646 178.5787 398.6553 178.0318 Q399.0459 177.4849 399.0459 176.4693 Q399.0459 175.438 398.6553 174.9068 Q398.2646 174.3599 397.5146 174.3599 ZM397.5146 172.7349 Q399.3584 172.7349 400.3896 173.7349 Q401.4209 174.7193 401.4209 176.4693 Q401.4209 178.2193 400.3896 179.2193 Q399.3584 180.2037 397.5146 180.2037 Q395.6865 180.2037 394.6396 179.2193 Q393.6084 178.2193 393.6084 176.4693 Q393.6084 174.7193 394.6396 173.7349 Q395.6865 172.7349 397.5146 172.7349 ZM410.2114 175.688 L410.2114 180.0162 L407.9302 180.0162 L407.9302 179.313 L407.9302 176.7037 Q407.9302 175.7818 407.8833 175.438 Q407.8521 175.0787 407.7427 174.9224 Q407.6177 174.7037 407.3833 174.5787 Q407.1646 174.4537 406.8677 174.4537 Q406.1489 174.4537 405.7427 175.0005 Q405.3364 175.5474 405.3364 176.5162 L405.3364 180.0162 L403.0708 180.0162 L403.0708 172.9068 L405.3364 172.9068 L405.3364 173.9537 Q405.8521 173.3287 406.4302 173.0318 Q407.0083 172.7349 407.7114 172.7349 Q408.9458 172.7349 409.5708 173.5005 Q410.2114 174.2505 410.2114 175.688 ZM418.0757 173.1255 L418.0757 174.9849 Q417.6069 174.6724 417.1382 174.5162 Q416.6694 174.3599 416.1694 174.3599 Q415.2163 174.3599 414.6851 174.9224 Q414.1538 175.4693 414.1538 176.4693 Q414.1538 177.4693 414.6851 178.0318 Q415.2163 178.5787 416.1694 178.5787 Q416.7007 178.5787 417.1851 178.4224 Q417.6694 178.2505 418.0757 177.9537 L418.0757 179.813 Q417.5288 180.0005 416.9819 180.0943 Q416.4351 180.2037 415.8882 180.2037 Q413.9663 180.2037 412.8726 179.2193 Q411.7944 178.2193 411.7944 176.4693 Q411.7944 174.7037 412.8726 173.7193 Q413.9663 172.7349 415.8882 172.7349 Q416.4507 172.7349 416.9819 172.8443 Q417.5288 172.938 418.0757 173.1255 ZM427.1255 176.438 L427.1255 177.0943 L421.813 177.0943 Q421.8911 177.8912 422.3911 178.2974 Q422.8911 178.688 423.7817 178.688 Q424.4849 178.688 425.2349 178.4849 Q426.0005 178.2662 426.7974 177.8287 L426.7974 179.5787 Q425.9849 179.8912 425.1724 180.0474 Q424.3755 180.2037 423.563 180.2037 Q421.6411 180.2037 420.563 179.2193 Q419.5005 178.2349 419.5005 176.4693 Q419.5005 174.7349 420.5474 173.7349 Q421.5942 172.7349 423.438 172.7349 Q425.1099 172.7349 426.1099 173.7505 Q427.1255 174.7505 427.1255 176.438 ZM424.7974 175.688 Q424.7974 175.0318 424.4067 174.6412 Q424.0317 174.2505 423.4224 174.2505 Q422.7661 174.2505 422.3442 174.6255 Q421.938 174.9849 421.8442 175.688 L424.7974 175.688 ZM431.1143 178.9849 L431.1143 182.7193 L428.8486 182.7193 L428.8486 172.9068 L431.1143 172.9068 L431.1143 173.9537 Q431.583 173.3287 432.1611 173.0318 Q432.7393 172.7349 433.4736 172.7349 Q434.7861 172.7349 435.6299 173.7818 Q436.4736 174.8287 436.4736 176.4693 Q436.4736 178.1099 435.6299 179.1568 Q434.7861 180.2037 433.4736 180.2037 Q432.7393 180.2037 432.1611 179.9068 Q431.583 179.6099 431.1143 178.9849 ZM432.6299 174.3912 Q431.8955 174.3912 431.5049 174.9224 Q431.1143 175.4537 431.1143 176.4693 Q431.1143 177.4693 431.5049 178.0162 Q431.8955 178.5474 432.6299 178.5474 Q433.3643 178.5474 433.7393 178.0162 Q434.1299 177.4849 434.1299 176.4693 Q434.1299 175.4537 433.7393 174.9224 Q433.3643 174.3912 432.6299 174.3912 ZM440.6387 170.8912 L440.6387 172.9068 L442.9824 172.9068 L442.9824 174.5318 L440.6387 174.5318 L440.6387 177.5474 Q440.6387 178.0474 440.8262 178.2193 Q441.0293 178.3912 441.6074 178.3912 L442.7793 178.3912 L442.7793 180.0162 L440.8262 180.0162 Q439.4824 180.0162 438.9199 179.4537 Q438.3574 178.8912 438.3574 177.5474 L438.3574 174.5318 L437.2324 174.5318 L437.2324 172.9068 L438.3574 172.9068 L438.3574 170.8912 L440.6387 170.8912 Z" clip-path="url(#clipPath7)" stroke="none"/>
    </g>
    <g fill="rgb(255,204,0)" text-rendering="geometricPrecision" shape-rendering="geometricPrecision" transform="matrix(1.4743,0,0,1.4523,399.0841,235.8165)" stroke="rgb(255,204,0)">
      <g clip-path="url(#clipPath8)">
        <svg xmlns:svg="http://www.w3.org/2000/svg" xmlns:sodipodi="http://sodipodi.sourceforge.net/DTD/sodipodi-0.dtd" xmlns:inkscape="http://www.inkscape.org/namespaces/inkscape" xmlns:dc="http://purl.org/dc/elements/1.1/" xmlns:cc="http://web.resource.org/cc/" xmlns:rdf="http://www.w3.org/1999/02/22-rdf-syntax-ns#" opacity="1" writing-mode="lr-tb" stop-color="rgb(0, 0, 0)" shape-rendering="auto" glyph-orientation-horizontal="0deg" color-profile="auto" lighting-color="rgb(255, 255, 255)" color="rgb(0, 0, 0)" font-weight="400" alignment-baseline="auto" font-style="normal" version="1.0" color-interpolation-filters="linearrgb" text-anchor="start" stroke-linecap="butt" color-interpolation="srgb" font-variant="normal" word-spacing="normal" fill-opacity="1" text-rendering="auto" clip-path="none" text-decoration="none" letter-spacing="normal" glyph-orientation-vertical="auto" display="inline" font-size-adjust="none" overflow="hidden" fill="rgb(0, 0, 0)" font-stretch="normal" stroke-dasharray="none" inkscape:version="0.45.1" id="svg5.svg2" stroke-miterlimit="4" stop-opacity="1" color-rendering="auto" font-size="12" sodipodi:docbase="C:\Daten\alberts\projects\yfx" pointer-events="visiblepainted" mask="none" direction="ltr" baseline-shift="baseline" sodipodi:docname="uml_actor.svg" enable-background="accumulate" fill-rule="nonzero" image-rendering="auto" stroke-dashoffset="0" inkscape:output_extension="org.inkscape.output.svg.inkscape" marker-end="none" width="41" clip="auto" cursor="auto" stroke="none" filter="none" visibility="visible" kerning="auto" stroke-width="1" font-family="&quot;Arial&quot;,&quot;Helvetica&quot;,sans-serif" flood-opacity="1" clip-rule="nonzero" src="none" height="68.997391" unicode-bidi="normal" sodipodi:version="0.32" stroke-linejoin="miter" stroke-opacity="1" flood-color="rgb(0, 0, 0)" dominant-baseline="auto" marker-start="none" marker-mid="none">
            
          <defs id="svg5.defs4"/>
            
  
          <metadata id="svg5.metadata7">
    
  </metadata>
            
          <g inkscape:groupmode="layer" id="svg5.layer1" transform="translate(-29.5,-42.959476)" inkscape:label="Ebene 1">
                
            <a id="svg5.a3142" transform="matrix(1.0873906,0,0,1,-4.4741999,0)">
                    
              <path transform="translate(11.586889,5.2908993)" style="fill:none;fill-rule:evenodd;stroke:#000000;stroke-width:1px;stroke-linecap:butt;stroke-linejoin:miter;stroke-opacity:1" sodipodi:cx="38.509369" sodipodi:cy="47.36993" sodipodi:rx="8.5197716" id="svg5.path2160" d="M 47.02914 47.36993 A 8.5197716 9.2013531 0 1 1  29.989597,47.36993 A 8.5197716 9.2013531 0 1 1  47.02914 47.36993 z" sodipodi:ry="9.2013531" sodipodi:type="arc"/>
                  
            </a>
                
            <path style="fill:none" sodipodi:cx="43.962021" sodipodi:cy="48.392303" d="M 47.71072 48.392303 A 3.7486994 0 0 1 1  40.213321,48.392303 A 3.7486994 0 0 1 1  47.71072 48.392303 z" id="svg5.path3134" sodipodi:rx="3.7486994" sodipodi:ry="0" sodipodi:type="arc"/>
                
            <path style="fill:none;fill-rule:evenodd;stroke:#000000;stroke-width:1.24319649px;stroke-linecap:butt;stroke-linejoin:miter;stroke-opacity:1" d="M 50,61.33709 C 50,91.363211 50,92.247838 50,92.247838" id="svg5.path3136"/>
                
            <path style="fill:none;fill-rule:evenodd;stroke:#000000;stroke-width:1px;stroke-linecap:butt;stroke-linejoin:miter;stroke-opacity:1" d="M 69.760668,72.362183 C 69.760668,72.362183 69.760668,72.362183 50.239332,72.362183 C 30.239332,72.362183 30.239332,72.362183 30.239332,72.362183 L 30.239332,72.362183" id="svg5.path3138"/>
                
            <path style="fill:none;fill-rule:evenodd;stroke:#000000;stroke-width:1px;stroke-linecap:butt;stroke-linejoin:miter;stroke-opacity:1" d="M 30,111.45687 C 30,111.45687 30,111.45687 50,92.013532 C 70,111.45687 70,111.45687 70,111.45687" id="svg5.path3140"/>
              
          </g>
          
        </svg>
      </g>
    </g>
    <g font-size="13px" stroke-linecap="butt" transform="matrix(1,0,0,1,15,15)" text-rendering="geometricPrecision" font-family="sans-serif" shape-rendering="geometricPrecision" stroke-miterlimit="1.45">
      <text x="368.9089" xml:space="preserve" y="338.8834" clip-path="url(#clipPath2)" stroke="none">pater familiae</text>
    </g>
    <g fill="rgb(255,204,0)" text-rendering="geometricPrecision" shape-rendering="geometricPrecision" transform="matrix(1,0,0,1,15,15)" stroke="rgb(255,204,0)">
      <rect x="605" width="98" height="41" y="275" clip-path="url(#clipPath2)" stroke="none"/>
      <rect x="604" y="274" clip-path="url(#clipPath2)" fill="yellow" width="1" height="43" stroke="none"/>
      <rect x="605" y="274" clip-path="url(#clipPath2)" fill="yellow" width="98" height="1" stroke="none"/>
      <rect x="605" y="316" clip-path="url(#clipPath2)" fill="rgb(178,142,0)" width="99" height="1" stroke="none"/>
      <rect x="703" y="274" clip-path="url(#clipPath2)" fill="rgb(178,142,0)" width="1" height="42" stroke="none"/>
      <path fill="black" d="M612.7478 284.4927 L612.7478 286.3521 Q612.2791 286.0396 611.8103 285.8834 Q611.3416 285.7271 610.8416 285.7271 Q609.8884 285.7271 609.3572 286.2896 Q608.8259 286.8365 608.8259 287.8365 Q608.8259 288.8365 609.3572 289.399 Q609.8884 289.9459 610.8416 289.9459 Q611.3728 289.9459 611.8572 289.7896 Q612.3416 289.6177 612.7478 289.3209 L612.7478 291.1802 Q612.2009 291.3677 611.6541 291.4615 Q611.1072 291.5709 610.5603 291.5709 Q608.6384 291.5709 607.5447 290.5865 Q606.4666 289.5865 606.4666 287.8365 Q606.4666 286.0709 607.5447 285.0865 Q608.6384 284.1021 610.5603 284.1021 Q611.1228 284.1021 611.6541 284.2115 Q612.2009 284.3052 612.7478 284.4927 ZM618.0789 285.7271 Q617.3289 285.7271 616.9226 286.274 Q616.532 286.8052 616.532 287.8365 Q616.532 288.8521 616.9226 289.399 Q617.3289 289.9459 618.0789 289.9459 Q618.8289 289.9459 619.2195 289.399 Q619.6101 288.8521 619.6101 287.8365 Q619.6101 286.8052 619.2195 286.274 Q618.8289 285.7271 618.0789 285.7271 ZM618.0789 284.1021 Q619.9226 284.1021 620.9539 285.1021 Q621.9851 286.0865 621.9851 287.8365 Q621.9851 289.5865 620.9539 290.5865 Q619.9226 291.5709 618.0789 291.5709 Q616.2507 291.5709 615.2039 290.5865 Q614.1726 289.5865 614.1726 287.8365 Q614.1726 286.0865 615.2039 285.1021 Q616.2507 284.1021 618.0789 284.1021 ZM630.7756 287.0552 L630.7756 291.3834 L628.4944 291.3834 L628.4944 290.6802 L628.4944 288.0709 Q628.4944 287.149 628.4475 286.8052 Q628.4163 286.4459 628.3069 286.2896 Q628.1819 286.0709 627.9475 285.9459 Q627.7288 285.8209 627.4319 285.8209 Q626.7131 285.8209 626.3069 286.3677 Q625.9006 286.9146 625.9006 287.8834 L625.9006 291.3834 L623.635 291.3834 L623.635 284.274 L625.9006 284.274 L625.9006 285.3209 Q626.4163 284.6959 626.9944 284.399 Q627.5725 284.1021 628.2756 284.1021 Q629.51 284.1021 630.135 284.8677 Q630.7756 285.6177 630.7756 287.0552 ZM638.4368 284.4927 L638.4368 286.2271 Q637.718 285.9146 637.0305 285.774 Q636.3586 285.6177 635.7493 285.6177 Q635.1086 285.6177 634.7805 285.774 Q634.468 285.9302 634.468 286.274 Q634.468 286.5396 634.7024 286.6959 Q634.9524 286.8365 635.5618 286.9146 L635.968 286.9615 Q637.718 287.1802 638.3118 287.6959 Q638.9211 288.1959 638.9211 289.2896 Q638.9211 290.4302 638.0774 291.0084 Q637.2493 291.5709 635.5774 291.5709 Q634.8743 291.5709 634.1243 291.4615 Q633.3743 291.3521 632.5774 291.1177 L632.5774 289.399 Q633.2493 289.7271 633.968 289.899 Q634.6868 290.0552 635.4211 290.0552 Q636.093 290.0552 636.4211 289.8834 Q636.7649 289.6959 636.7649 289.3209 Q636.7649 289.024 636.5305 288.8834 Q636.2961 288.7271 635.6086 288.6334 L635.2024 288.5865 Q633.6868 288.399 633.0774 287.8834 Q632.468 287.3677 632.468 286.3209 Q632.468 285.1959 633.2336 284.649 Q634.0149 284.1021 635.6243 284.1021 Q636.2493 284.1021 636.9368 284.1959 Q637.6243 284.2896 638.4368 284.4927 ZM643.1121 282.2584 L643.1121 284.274 L645.4558 284.274 L645.4558 285.899 L643.1121 285.899 L643.1121 288.9146 Q643.1121 289.4146 643.2996 289.5865 Q643.5027 289.7584 644.0808 289.7584 L645.2527 289.7584 L645.2527 291.3834 L643.2996 291.3834 Q641.9558 291.3834 641.3933 290.8209 Q640.8308 290.2584 640.8308 288.9146 L640.8308 285.899 L639.7058 285.899 L639.7058 284.274 L640.8308 284.274 L640.8308 282.2584 L643.1121 282.2584 ZM652.1233 286.2115 Q651.8264 286.0709 651.5295 286.0084 Q651.2327 285.9302 650.9358 285.9302 Q650.0608 285.9302 649.5764 286.4927 Q649.1077 287.0552 649.1077 288.1021 L649.1077 291.3834 L646.842 291.3834 L646.842 284.274 L649.1077 284.274 L649.1077 285.4459 Q649.5452 284.7427 650.1077 284.4302 Q650.6858 284.1021 651.4827 284.1021 Q651.592 284.1021 651.717 284.1177 Q651.8577 284.1177 652.1077 284.149 L652.1233 286.2115 ZM653.175 288.6177 L653.175 284.274 L655.4563 284.274 L655.4563 284.9771 Q655.4563 285.5552 655.4407 286.4302 Q655.4407 287.3052 655.4407 287.6021 Q655.4407 288.4615 655.4875 288.8365 Q655.5344 289.2115 655.6438 289.3834 Q655.7844 289.6021 656.0032 289.7271 Q656.2375 289.8521 656.5344 289.8521 Q657.2375 289.8521 657.6438 289.3052 Q658.05 288.7584 658.05 287.7896 L658.05 284.274 L660.3157 284.274 L660.3157 291.3834 L658.05 291.3834 L658.05 290.3521 Q657.5344 290.9771 656.9563 291.274 Q656.3938 291.5709 655.6907 291.5709 Q654.4563 291.5709 653.8157 290.8209 Q653.175 290.0552 653.175 288.6177 ZM668.2581 284.4927 L668.2581 286.3521 Q667.7893 286.0396 667.3206 285.8834 Q666.8518 285.7271 666.3518 285.7271 Q665.3987 285.7271 664.8674 286.2896 Q664.3362 286.8365 664.3362 287.8365 Q664.3362 288.8365 664.8674 289.399 Q665.3987 289.9459 666.3518 289.9459 Q666.8831 289.9459 667.3674 289.7896 Q667.8518 289.6177 668.2581 289.3209 L668.2581 291.1802 Q667.7112 291.3677 667.1643 291.4615 Q666.6174 291.5709 666.0706 291.5709 Q664.1487 291.5709 663.0549 290.5865 Q661.9768 289.5865 661.9768 287.8365 Q661.9768 286.0709 663.0549 285.0865 Q664.1487 284.1021 666.0706 284.1021 Q666.6331 284.1021 667.1643 284.2115 Q667.7112 284.3052 668.2581 284.4927 ZM672.6985 282.2584 L672.6985 284.274 L675.0422 284.274 L675.0422 285.899 L672.6985 285.899 L672.6985 288.9146 Q672.6985 289.4146 672.886 289.5865 Q673.0891 289.7584 673.6672 289.7584 L674.8391 289.7584 L674.8391 291.3834 L672.886 291.3834 Q671.5422 291.3834 670.9797 290.8209 Q670.4172 290.2584 670.4172 288.9146 L670.4172 285.899 L669.2922 285.899 L669.2922 284.274 L670.4172 284.274 L670.4172 282.2584 L672.6985 282.2584 ZM676.4285 284.274 L678.6941 284.274 L678.6941 291.3834 L676.4285 291.3834 L676.4285 284.274 ZM676.4285 281.5084 L678.6941 281.5084 L678.6941 283.3521 L676.4285 283.3521 L676.4285 281.5084 ZM684.2595 285.7271 Q683.5095 285.7271 683.1033 286.274 Q682.7126 286.8052 682.7126 287.8365 Q682.7126 288.8521 683.1033 289.399 Q683.5095 289.9459 684.2595 289.9459 Q685.0095 289.9459 685.4001 289.399 Q685.7908 288.8521 685.7908 287.8365 Q685.7908 286.8052 685.4001 286.274 Q685.0095 285.7271 684.2595 285.7271 ZM684.2595 284.1021 Q686.1033 284.1021 687.1345 285.1021 Q688.1658 286.0865 688.1658 287.8365 Q688.1658 289.5865 687.1345 290.5865 Q686.1033 291.5709 684.2595 291.5709 Q682.4314 291.5709 681.3845 290.5865 Q680.3533 289.5865 680.3533 287.8365 Q680.3533 286.0865 681.3845 285.1021 Q682.4314 284.1021 684.2595 284.1021 ZM696.9563 287.0552 L696.9563 291.3834 L694.675 291.3834 L694.675 290.6802 L694.675 288.0709 Q694.675 287.149 694.6282 286.8052 Q694.5969 286.4459 694.4875 286.2896 Q694.3625 286.0709 694.1282 285.9459 Q693.9094 285.8209 693.6125 285.8209 Q692.8938 285.8209 692.4875 286.3677 Q692.0813 286.9146 692.0813 287.8834 L692.0813 291.3834 L689.8157 291.3834 L689.8157 284.274 L692.0813 284.274 L692.0813 285.3209 Q692.5969 284.6959 693.175 284.399 Q693.7532 284.1021 694.4563 284.1021 Q695.6907 284.1021 696.3157 284.8677 Q696.9563 285.6177 696.9563 287.0552 Z" clip-path="url(#clipPath9)" stroke="none"/>
      <path fill="black" d="M643.5752 299.6255 L643.5752 301.4849 Q643.1064 301.1724 642.6377 301.0162 Q642.1689 300.8599 641.6689 300.8599 Q640.7158 300.8599 640.1846 301.4224 Q639.6533 301.9693 639.6533 302.9693 Q639.6533 303.9693 640.1846 304.5318 Q640.7158 305.0787 641.6689 305.0787 Q642.2002 305.0787 642.6846 304.9224 Q643.1689 304.7505 643.5752 304.4537 L643.5752 306.313 Q643.0283 306.5005 642.4814 306.5943 Q641.9346 306.7037 641.3877 306.7037 Q639.4658 306.7037 638.3721 305.7193 Q637.2939 304.7193 637.2939 302.9693 Q637.2939 301.2037 638.3721 300.2193 Q639.4658 299.2349 641.3877 299.2349 Q641.9502 299.2349 642.4814 299.3443 Q643.0283 299.438 643.5752 299.6255 ZM650.8125 301.3443 Q650.5156 301.2037 650.2188 301.1412 Q649.9219 301.063 649.625 301.063 Q648.75 301.063 648.2656 301.6255 Q647.7969 302.188 647.7969 303.2349 L647.7969 306.5162 L645.5312 306.5162 L645.5312 299.4068 L647.7969 299.4068 L647.7969 300.5787 Q648.2344 299.8755 648.7969 299.563 Q649.375 299.2349 650.1719 299.2349 Q650.2812 299.2349 650.4062 299.2505 Q650.5469 299.2505 650.7969 299.2818 L650.8125 301.3443 ZM659.0361 302.938 L659.0361 303.5943 L653.7236 303.5943 Q653.8018 304.3912 654.3018 304.7974 Q654.8018 305.188 655.6924 305.188 Q656.3955 305.188 657.1455 304.9849 Q657.9111 304.7662 658.708 304.3287 L658.708 306.0787 Q657.8955 306.3912 657.083 306.5474 Q656.2861 306.7037 655.4736 306.7037 Q653.5518 306.7037 652.4736 305.7193 Q651.4111 304.7349 651.4111 302.9693 Q651.4111 301.2349 652.458 300.2349 Q653.5049 299.2349 655.3486 299.2349 Q657.0205 299.2349 658.0205 300.2505 Q659.0361 301.2505 659.0361 302.938 ZM656.708 302.188 Q656.708 301.5318 656.3174 301.1412 Q655.9424 300.7505 655.333 300.7505 Q654.6768 300.7505 654.2549 301.1255 Q653.8486 301.4849 653.7549 302.188 L656.708 302.188 ZM660.1187 299.4068 L662.3374 299.4068 L663.5249 304.313 L664.728 299.4068 L666.6187 299.4068 L667.8218 304.2505 L669.0093 299.4068 L671.228 299.4068 L669.353 306.5162 L666.8687 306.5162 L665.6655 301.6255 L664.478 306.5162 L661.9937 306.5162 L660.1187 299.4068 Z" clip-path="url(#clipPath9)" stroke="none"/>
    </g>
    <g fill="rgb(255,204,0)" text-rendering="geometricPrecision" shape-rendering="geometricPrecision" transform="matrix(1.4743,0,0,1.4523,511.5321,567.0823)" stroke="rgb(255,204,0)">
      <g clip-path="url(#clipPath10)">
        <svg xmlns:svg="http://www.w3.org/2000/svg" xmlns:sodipodi="http://sodipodi.sourceforge.net/DTD/sodipodi-0.dtd" xmlns:inkscape="http://www.inkscape.org/namespaces/inkscape" xmlns:dc="http://purl.org/dc/elements/1.1/" xmlns:cc="http://web.resource.org/cc/" xmlns:rdf="http://www.w3.org/1999/02/22-rdf-syntax-ns#" opacity="1" writing-mode="lr-tb" stop-color="rgb(0, 0, 0)" shape-rendering="auto" glyph-orientation-horizontal="0deg" color-profile="auto" lighting-color="rgb(255, 255, 255)" color="rgb(0, 0, 0)" font-weight="400" alignment-baseline="auto" font-style="normal" version="1.0" color-interpolation-filters="linearrgb" text-anchor="start" stroke-linecap="butt" color-interpolation="srgb" font-variant="normal" word-spacing="normal" fill-opacity="1" text-rendering="auto" clip-path="none" text-decoration="none" letter-spacing="normal" glyph-orientation-vertical="auto" display="inline" font-size-adjust="none" overflow="hidden" fill="rgb(0, 0, 0)" font-stretch="normal" stroke-dasharray="none" inkscape:version="0.45.1" id="svg6.svg2" stroke-miterlimit="4" stop-opacity="1" color-rendering="auto" font-size="12" sodipodi:docbase="C:\Daten\alberts\projects\yfx" pointer-events="visiblepainted" mask="none" direction="ltr" baseline-shift="baseline" sodipodi:docname="uml_actor.svg" enable-background="accumulate" fill-rule="nonzero" image-rendering="auto" stroke-dashoffset="0" inkscape:output_extension="org.inkscape.output.svg.inkscape" marker-end="none" width="41" clip="auto" cursor="auto" stroke="none" filter="none" visibility="visible" kerning="auto" stroke-width="1" font-family="&quot;Arial&quot;,&quot;Helvetica&quot;,sans-serif" flood-opacity="1" clip-rule="nonzero" src="none" height="68.997391" unicode-bidi="normal" sodipodi:version="0.32" stroke-linejoin="miter" stroke-opacity="1" flood-color="rgb(0, 0, 0)" dominant-baseline="auto" marker-start="none" marker-mid="none">
            
          <defs id="svg6.defs4"/>
            
  
          <metadata id="svg6.metadata7">
    
  </metadata>
            
          <g inkscape:groupmode="layer" id="svg6.layer1" transform="translate(-29.5,-42.959476)" inkscape:label="Ebene 1">
                
            <a id="svg6.a3142" transform="matrix(1.0873906,0,0,1,-4.4741999,0)">
                    
              <path transform="translate(11.586889,5.2908993)" style="fill:none;fill-rule:evenodd;stroke:#000000;stroke-width:1px;stroke-linecap:butt;stroke-linejoin:miter;stroke-opacity:1" sodipodi:cx="38.509369" sodipodi:cy="47.36993" sodipodi:rx="8.5197716" id="svg6.path2160" d="M 47.02914 47.36993 A 8.5197716 9.2013531 0 1 1  29.989597,47.36993 A 8.5197716 9.2013531 0 1 1  47.02914 47.36993 z" sodipodi:ry="9.2013531" sodipodi:type="arc"/>
                  
            </a>
                
            <path style="fill:none" sodipodi:cx="43.962021" sodipodi:cy="48.392303" d="M 47.71072 48.392303 A 3.7486994 0 0 1 1  40.213321,48.392303 A 3.7486994 0 0 1 1  47.71072 48.392303 z" id="svg6.path3134" sodipodi:rx="3.7486994" sodipodi:ry="0" sodipodi:type="arc"/>
                
            <path style="fill:none;fill-rule:evenodd;stroke:#000000;stroke-width:1.24319649px;stroke-linecap:butt;stroke-linejoin:miter;stroke-opacity:1" d="M 50,61.33709 C 50,91.363211 50,92.247838 50,92.247838" id="svg6.path3136"/>
                
            <path style="fill:none;fill-rule:evenodd;stroke:#000000;stroke-width:1px;stroke-linecap:butt;stroke-linejoin:miter;stroke-opacity:1" d="M 69.760668,72.362183 C 69.760668,72.362183 69.760668,72.362183 50.239332,72.362183 C 30.239332,72.362183 30.239332,72.362183 30.239332,72.362183 L 30.239332,72.362183" id="svg6.path3138"/>
                
            <path style="fill:none;fill-rule:evenodd;stroke:#000000;stroke-width:1px;stroke-linecap:butt;stroke-linejoin:miter;stroke-opacity:1" d="M 30,111.45687 C 30,111.45687 30,111.45687 50,92.013532 C 70,111.45687 70,111.45687 70,111.45687" id="svg6.path3140"/>
              
          </g>
          
        </svg>
      </g>
    </g>
    <g font-size="13px" stroke-linecap="butt" transform="matrix(1,0,0,1,15,15)" text-rendering="geometricPrecision" font-family="sans-serif" shape-rendering="geometricPrecision" stroke-miterlimit="1.45">
      <text x="501.571" xml:space="preserve" y="670.1492" clip-path="url(#clipPath2)" stroke="none">masons</text>
    </g>
    <g fill="rgb(255,204,0)" text-rendering="geometricPrecision" shape-rendering="geometricPrecision" transform="matrix(1.4743,0,0,1.4523,511.5321,413.9494)" stroke="rgb(255,204,0)">
      <g clip-path="url(#clipPath11)">
        <svg xmlns:svg="http://www.w3.org/2000/svg" xmlns:sodipodi="http://sodipodi.sourceforge.net/DTD/sodipodi-0.dtd" xmlns:inkscape="http://www.inkscape.org/namespaces/inkscape" xmlns:dc="http://purl.org/dc/elements/1.1/" xmlns:cc="http://web.resource.org/cc/" xmlns:rdf="http://www.w3.org/1999/02/22-rdf-syntax-ns#" opacity="1" writing-mode="lr-tb" stop-color="rgb(0, 0, 0)" shape-rendering="auto" glyph-orientation-horizontal="0deg" color-profile="auto" lighting-color="rgb(255, 255, 255)" color="rgb(0, 0, 0)" font-weight="400" alignment-baseline="auto" font-style="normal" version="1.0" color-interpolation-filters="linearrgb" text-anchor="start" stroke-linecap="butt" color-interpolation="srgb" font-variant="normal" word-spacing="normal" fill-opacity="1" text-rendering="auto" clip-path="none" text-decoration="none" letter-spacing="normal" glyph-orientation-vertical="auto" display="inline" font-size-adjust="none" overflow="hidden" fill="rgb(0, 0, 0)" font-stretch="normal" stroke-dasharray="none" inkscape:version="0.45.1" id="svg7.svg2" stroke-miterlimit="4" stop-opacity="1" color-rendering="auto" font-size="12" sodipodi:docbase="C:\Daten\alberts\projects\yfx" pointer-events="visiblepainted" mask="none" direction="ltr" baseline-shift="baseline" sodipodi:docname="uml_actor.svg" enable-background="accumulate" fill-rule="nonzero" image-rendering="auto" stroke-dashoffset="0" inkscape:output_extension="org.inkscape.output.svg.inkscape" marker-end="none" width="41" clip="auto" cursor="auto" stroke="none" filter="none" visibility="visible" kerning="auto" stroke-width="1" font-family="&quot;Arial&quot;,&quot;Helvetica&quot;,sans-serif" flood-opacity="1" clip-rule="nonzero" src="none" height="68.997391" unicode-bidi="normal" sodipodi:version="0.32" stroke-linejoin="miter" stroke-opacity="1" flood-color="rgb(0, 0, 0)" dominant-baseline="auto" marker-start="none" marker-mid="none">
            
          <defs id="svg7.defs4"/>
            
  
          <metadata id="svg7.metadata7">
    
  </metadata>
            
          <g inkscape:groupmode="layer" id="svg7.layer1" transform="translate(-29.5,-42.959476)" inkscape:label="Ebene 1">
                
            <a id="svg7.a3142" transform="matrix(1.0873906,0,0,1,-4.4741999,0)">
                    
              <path transform="translate(11.586889,5.2908993)" style="fill:none;fill-rule:evenodd;stroke:#000000;stroke-width:1px;stroke-linecap:butt;stroke-linejoin:miter;stroke-opacity:1" sodipodi:cx="38.509369" sodipodi:cy="47.36993" sodipodi:rx="8.5197716" id="svg7.path2160" d="M 47.02914 47.36993 A 8.5197716 9.2013531 0 1 1  29.989597,47.36993 A 8.5197716 9.2013531 0 1 1  47.02914 47.36993 z" sodipodi:ry="9.2013531" sodipodi:type="arc"/>
                  
            </a>
                
            <path style="fill:none" sodipodi:cx="43.962021" sodipodi:cy="48.392303" d="M 47.71072 48.392303 A 3.7486994 0 0 1 1  40.213321,48.392303 A 3.7486994 0 0 1 1  47.71072 48.392303 z" id="svg7.path3134" sodipodi:rx="3.7486994" sodipodi:ry="0" sodipodi:type="arc"/>
                
            <path style="fill:none;fill-rule:evenodd;stroke:#000000;stroke-width:1.24319649px;stroke-linecap:butt;stroke-linejoin:miter;stroke-opacity:1" d="M 50,61.33709 C 50,91.363211 50,92.247838 50,92.247838" id="svg7.path3136"/>
                
            <path style="fill:none;fill-rule:evenodd;stroke:#000000;stroke-width:1px;stroke-linecap:butt;stroke-linejoin:miter;stroke-opacity:1" d="M 69.760668,72.362183 C 69.760668,72.362183 69.760668,72.362183 50.239332,72.362183 C 30.239332,72.362183 30.239332,72.362183 30.239332,72.362183 L 30.239332,72.362183" id="svg7.path3138"/>
                
            <path style="fill:none;fill-rule:evenodd;stroke:#000000;stroke-width:1px;stroke-linecap:butt;stroke-linejoin:miter;stroke-opacity:1" d="M 30,111.45687 C 30,111.45687 30,111.45687 50,92.013532 C 70,111.45687 70,111.45687 70,111.45687" id="svg7.path3140"/>
              
          </g>
          
        </svg>
      </g>
    </g>
    <g font-size="13px" stroke-linecap="butt" transform="matrix(1,0,0,1,15,15)" text-rendering="geometricPrecision" font-family="sans-serif" shape-rendering="geometricPrecision" stroke-miterlimit="1.45">
      <text x="478.5989" xml:space="preserve" y="517.0163" clip-path="url(#clipPath2)" stroke="none">stair carpenter</text>
    </g>
    <g fill="rgb(255,204,0)" text-rendering="geometricPrecision" shape-rendering="geometricPrecision" transform="matrix(1.4743,0,0,1.4523,511.5321,107.6835)" stroke="rgb(255,204,0)">
      <g clip-path="url(#clipPath12)">
        <svg xmlns:svg="http://www.w3.org/2000/svg" xmlns:sodipodi="http://sodipodi.sourceforge.net/DTD/sodipodi-0.dtd" xmlns:inkscape="http://www.inkscape.org/namespaces/inkscape" xmlns:dc="http://purl.org/dc/elements/1.1/" xmlns:cc="http://web.resource.org/cc/" xmlns:rdf="http://www.w3.org/1999/02/22-rdf-syntax-ns#" opacity="1" writing-mode="lr-tb" stop-color="rgb(0, 0, 0)" shape-rendering="auto" glyph-orientation-horizontal="0deg" color-profile="auto" lighting-color="rgb(255, 255, 255)" color="rgb(0, 0, 0)" font-weight="400" alignment-baseline="auto" font-style="normal" version="1.0" color-interpolation-filters="linearrgb" text-anchor="start" stroke-linecap="butt" color-interpolation="srgb" font-variant="normal" word-spacing="normal" fill-opacity="1" text-rendering="auto" clip-path="none" text-decoration="none" letter-spacing="normal" glyph-orientation-vertical="auto" display="inline" font-size-adjust="none" overflow="hidden" fill="rgb(0, 0, 0)" font-stretch="normal" stroke-dasharray="none" inkscape:version="0.45.1" id="svg8.svg2" stroke-miterlimit="4" stop-opacity="1" color-rendering="auto" font-size="12" sodipodi:docbase="C:\Daten\alberts\projects\yfx" pointer-events="visiblepainted" mask="none" direction="ltr" baseline-shift="baseline" sodipodi:docname="uml_actor.svg" enable-background="accumulate" fill-rule="nonzero" image-rendering="auto" stroke-dashoffset="0" inkscape:output_extension="org.inkscape.output.svg.inkscape" marker-end="none" width="41" clip="auto" cursor="auto" stroke="none" filter="none" visibility="visible" kerning="auto" stroke-width="1" font-family="&quot;Arial&quot;,&quot;Helvetica&quot;,sans-serif" flood-opacity="1" clip-rule="nonzero" src="none" height="68.997391" unicode-bidi="normal" sodipodi:version="0.32" stroke-linejoin="miter" stroke-opacity="1" flood-color="rgb(0, 0, 0)" dominant-baseline="auto" marker-start="none" marker-mid="none">
            
          <defs id="svg8.defs4"/>
            
  
          <metadata id="svg8.metadata7">
    
  </metadata>
            
          <g inkscape:groupmode="layer" id="svg8.layer1" transform="translate(-29.5,-42.959476)" inkscape:label="Ebene 1">
                
            <a id="svg8.a3142" transform="matrix(1.0873906,0,0,1,-4.4741999,0)">
                    
              <path transform="translate(11.586889,5.2908993)" style="fill:none;fill-rule:evenodd;stroke:#000000;stroke-width:1px;stroke-linecap:butt;stroke-linejoin:miter;stroke-opacity:1" sodipodi:cx="38.509369" sodipodi:cy="47.36993" sodipodi:rx="8.5197716" id="svg8.path2160" d="M 47.02914 47.36993 A 8.5197716 9.2013531 0 1 1  29.989597,47.36993 A 8.5197716 9.2013531 0 1 1  47.02914 47.36993 z" sodipodi:ry="9.2013531" sodipodi:type="arc"/>
                  
            </a>
                
            <path style="fill:none" sodipodi:cx="43.962021" sodipodi:cy="48.392303" d="M 47.71072 48.392303 A 3.7486994 0 0 1 1  40.213321,48.392303 A 3.7486994 0 0 1 1  47.71072 48.392303 z" id="svg8.path3134" sodipodi:rx="3.7486994" sodipodi:ry="0" sodipodi:type="arc"/>
                
            <path style="fill:none;fill-rule:evenodd;stroke:#000000;stroke-width:1.24319649px;stroke-linecap:butt;stroke-linejoin:miter;stroke-opacity:1" d="M 50,61.33709 C 50,91.363211 50,92.247838 50,92.247838" id="svg8.path3136"/>
                
            <path style="fill:none;fill-rule:evenodd;stroke:#000000;stroke-width:1px;stroke-linecap:butt;stroke-linejoin:miter;stroke-opacity:1" d="M 69.760668,72.362183 C 69.760668,72.362183 69.760668,72.362183 50.239332,72.362183 C 30.239332,72.362183 30.239332,72.362183 30.239332,72.362183 L 30.239332,72.362183" id="svg8.path3138"/>
                
            <path style="fill:none;fill-rule:evenodd;stroke:#000000;stroke-width:1px;stroke-linecap:butt;stroke-linejoin:miter;stroke-opacity:1" d="M 30,111.45687 C 30,111.45687 30,111.45687 50,92.013532 C 70,111.45687 70,111.45687 70,111.45687" id="svg8.path3140"/>
              
          </g>
          
        </svg>
      </g>
    </g>
    <g font-size="13px" stroke-linecap="butt" transform="matrix(1,0,0,1,15,15)" text-rendering="geometricPrecision" font-family="sans-serif" shape-rendering="geometricPrecision" stroke-miterlimit="1.45">
      <text x="476.3074" xml:space="preserve" y="210.7504" clip-path="url(#clipPath2)" stroke="none">glass carpenter</text>
    </g>
    <g fill="rgb(255,204,0)" text-rendering="geometricPrecision" shape-rendering="geometricPrecision" transform="matrix(1,0,0,1,15,15)" stroke="rgb(255,204,0)">
      <ellipse rx="55" ry="25" clip-path="url(#clipPath2)" cx="779.2034" cy="295.8165" stroke="none"/>
    </g>
    <g font-size="13px" stroke-linecap="butt" transform="matrix(1,0,0,1,15,15)" text-rendering="geometricPrecision" font-family="sans-serif" shape-rendering="geometricPrecision" stroke-miterlimit="1.45">
      <text x="728.3364" xml:space="preserve" y="300.317" clip-path="url(#clipPath2)" stroke="none">penthouse built</text>
      <ellipse rx="55" fill="none" ry="25" clip-path="url(#clipPath2)" cx="779.2034" cy="295.8165"/>
    </g>
    <g fill="rgb(255,204,0)" text-rendering="geometricPrecision" shape-rendering="geometricPrecision" transform="matrix(1,0,0,1,15,15)" stroke="rgb(255,204,0)">
      <rect x="11" width="98" height="41" y="154" clip-path="url(#clipPath2)" stroke="none"/>
      <rect x="10" y="153" clip-path="url(#clipPath2)" fill="yellow" width="1" height="43" stroke="none"/>
      <rect x="11" y="153" clip-path="url(#clipPath2)" fill="yellow" width="98" height="1" stroke="none"/>
      <rect x="11" y="195" clip-path="url(#clipPath2)" fill="rgb(178,142,0)" width="99" height="1" stroke="none"/>
      <rect x="109" y="153" clip-path="url(#clipPath2)" fill="rgb(178,142,0)" width="1" height="42" stroke="none"/>
      <path fill="black" d="M28.9182 168.4655 L25.1057 168.4655 L24.4963 170.1998 L22.0432 170.1998 L25.5588 160.7155 L28.4651 160.7155 L31.9807 170.1998 L29.5276 170.1998 L28.9182 168.4655 ZM25.7151 166.7155 L28.3088 166.7155 L27.012 162.9498 L25.7151 166.7155 ZM39.823 161.028 L39.823 163.028 Q39.0574 162.6842 38.3074 162.5123 Q37.5574 162.3248 36.9011 162.3248 Q36.0261 162.3248 35.6042 162.5748 Q35.198 162.8092 35.198 163.3092 Q35.198 163.6998 35.4792 163.9186 Q35.7605 164.1217 36.4949 164.278 L37.5417 164.4811 Q39.1199 164.7936 39.7761 165.4498 Q40.448 166.0905 40.448 167.2936 Q40.448 168.8561 39.5105 169.6217 Q38.5886 170.3873 36.6824 170.3873 Q35.7761 170.3873 34.8699 170.2155 Q33.9636 170.0436 33.0574 169.6998 L33.0574 167.6373 Q33.9636 168.1217 34.8074 168.3717 Q35.6667 168.6061 36.448 168.6061 Q37.2449 168.6061 37.6667 168.3405 Q38.1042 168.0748 38.1042 167.5905 Q38.1042 167.1373 37.8074 166.903 Q37.5261 166.653 36.6511 166.4655 L35.7136 166.2623 Q34.2917 165.9498 33.6355 165.2936 Q32.9792 164.6217 32.9792 163.4967 Q32.9792 162.0748 33.8855 161.3092 Q34.8074 160.5436 36.5105 160.5436 Q37.2917 160.5436 38.1199 160.6686 Q38.948 160.7936 39.823 161.028 ZM47.1179 160.7155 L49.571 160.7155 L49.571 170.1998 L47.1179 170.1998 L47.1179 160.7155 ZM58.5486 161.028 L58.5486 163.028 Q57.783 162.6842 57.033 162.5123 Q56.283 162.3248 55.6267 162.3248 Q54.7517 162.3248 54.3298 162.5748 Q53.9236 162.8092 53.9236 163.3092 Q53.9236 163.6998 54.2048 163.9186 Q54.4861 164.1217 55.2205 164.278 L56.2673 164.4811 Q57.8455 164.7936 58.5017 165.4498 Q59.1736 166.0905 59.1736 167.2936 Q59.1736 168.8561 58.2361 169.6217 Q57.3142 170.3873 55.408 170.3873 Q54.5017 170.3873 53.5955 170.2155 Q52.6892 170.0436 51.783 169.6998 L51.783 167.6373 Q52.6892 168.1217 53.533 168.3717 Q54.3923 168.6061 55.1736 168.6061 Q55.9705 168.6061 56.3923 168.3405 Q56.8298 168.0748 56.8298 167.5905 Q56.8298 167.1373 56.533 166.903 Q56.2517 166.653 55.3767 166.4655 L54.4392 166.2623 Q53.0173 165.9498 52.3611 165.2936 Q51.7048 164.6217 51.7048 163.4967 Q51.7048 162.0748 52.6111 161.3092 Q53.533 160.5436 55.2361 160.5436 Q56.0173 160.5436 56.8455 160.6686 Q57.6736 160.7936 58.5486 161.028 ZM68.9373 166.9967 Q68.2185 166.9967 67.8591 167.2467 Q67.4998 167.4811 67.4998 167.9498 Q67.4998 168.3873 67.781 168.6373 Q68.0779 168.8717 68.5935 168.8717 Q69.2341 168.8717 69.6716 168.4186 Q70.1091 167.9498 70.1091 167.2623 L70.1091 166.9967 L68.9373 166.9967 ZM72.406 166.1373 L72.406 170.1998 L70.1091 170.1998 L70.1091 169.153 Q69.656 169.7936 69.0779 170.0905 Q68.5154 170.3873 67.7029 170.3873 Q66.5935 170.3873 65.906 169.7467 Q65.2185 169.0905 65.2185 168.0592 Q65.2185 166.8092 66.0779 166.2311 Q66.9373 165.653 68.781 165.653 L70.1091 165.653 L70.1091 165.4655 Q70.1091 164.9342 69.6873 164.6842 Q69.2654 164.4342 68.3591 164.4342 Q67.6404 164.4342 66.9998 164.5748 Q66.3748 164.7155 65.8435 165.0123 L65.8435 163.278 Q66.5623 163.1061 67.2966 163.0123 Q68.0466 162.9186 68.781 162.9186 Q70.7029 162.9186 71.5466 163.6842 Q72.406 164.4342 72.406 166.1373 ZM77.0066 161.0748 L77.0066 163.0905 L79.3503 163.0905 L79.3503 164.7155 L77.0066 164.7155 L77.0066 167.7311 Q77.0066 168.2311 77.1941 168.403 Q77.3972 168.5748 77.9753 168.5748 L79.1472 168.5748 L79.1472 170.1998 L77.1941 170.1998 Q75.8503 170.1998 75.2878 169.6373 Q74.7253 169.0748 74.7253 167.7311 L74.7253 164.7155 L73.6003 164.7155 L73.6003 163.0905 L74.7253 163.0905 L74.7253 161.0748 L77.0066 161.0748 ZM83.2209 161.0748 L83.2209 163.0905 L85.5647 163.0905 L85.5647 164.7155 L83.2209 164.7155 L83.2209 167.7311 Q83.2209 168.2311 83.4084 168.403 Q83.6116 168.5748 84.1897 168.5748 L85.3616 168.5748 L85.3616 170.1998 L83.4084 170.1998 Q82.0647 170.1998 81.5022 169.6373 Q80.9397 169.0748 80.9397 167.7311 L80.9397 164.7155 L79.8147 164.7155 L79.8147 163.0905 L80.9397 163.0905 L80.9397 161.0748 L83.2209 161.0748 ZM86.9509 163.0905 L89.2166 163.0905 L89.2166 170.1998 L86.9509 170.1998 L86.9509 163.0905 ZM86.9509 160.3248 L89.2166 160.3248 L89.2166 162.1686 L86.9509 162.1686 L86.9509 160.3248 ZM97.157 163.3092 L97.157 165.1686 Q96.6882 164.8561 96.2195 164.6998 Q95.7507 164.5436 95.2507 164.5436 Q94.2976 164.5436 93.7664 165.1061 Q93.2351 165.653 93.2351 166.653 Q93.2351 167.653 93.7664 168.2155 Q94.2976 168.7623 95.2507 168.7623 Q95.782 168.7623 96.2664 168.6061 Q96.7507 168.4342 97.157 168.1373 L97.157 169.9967 Q96.6101 170.1842 96.0632 170.278 Q95.5164 170.3873 94.9695 170.3873 Q93.0476 170.3873 91.9539 169.403 Q90.8757 168.403 90.8757 166.653 Q90.8757 164.8873 91.9539 163.903 Q93.0476 162.9186 94.9695 162.9186 Q95.532 162.9186 96.0632 163.028 Q96.6101 163.1217 97.157 163.3092 Z" clip-path="url(#clipPath13)" stroke="none"/>
    </g>
    <g fill="rgb(255,204,0)" text-rendering="geometricPrecision" shape-rendering="geometricPrecision" transform="matrix(1.4743,0,0,1.4523,511.5321,260.8165)" stroke="rgb(255,204,0)">
      <g clip-path="url(#clipPath14)">
        <svg xmlns:svg="http://www.w3.org/2000/svg" xmlns:sodipodi="http://sodipodi.sourceforge.net/DTD/sodipodi-0.dtd" xmlns:inkscape="http://www.inkscape.org/namespaces/inkscape" xmlns:dc="http://purl.org/dc/elements/1.1/" xmlns:cc="http://web.resource.org/cc/" xmlns:rdf="http://www.w3.org/1999/02/22-rdf-syntax-ns#" opacity="1" writing-mode="lr-tb" stop-color="rgb(0, 0, 0)" shape-rendering="auto" glyph-orientation-horizontal="0deg" color-profile="auto" lighting-color="rgb(255, 255, 255)" color="rgb(0, 0, 0)" font-weight="400" alignment-baseline="auto" font-style="normal" version="1.0" color-interpolation-filters="linearrgb" text-anchor="start" stroke-linecap="butt" color-interpolation="srgb" font-variant="normal" word-spacing="normal" fill-opacity="1" text-rendering="auto" clip-path="none" text-decoration="none" letter-spacing="normal" glyph-orientation-vertical="auto" display="inline" font-size-adjust="none" overflow="hidden" fill="rgb(0, 0, 0)" font-stretch="normal" stroke-dasharray="none" inkscape:version="0.45.1" id="svg9.svg2" stroke-miterlimit="4" stop-opacity="1" color-rendering="auto" font-size="12" sodipodi:docbase="C:\Daten\alberts\projects\yfx" pointer-events="visiblepainted" mask="none" direction="ltr" baseline-shift="baseline" sodipodi:docname="uml_actor.svg" enable-background="accumulate" fill-rule="nonzero" image-rendering="auto" stroke-dashoffset="0" inkscape:output_extension="org.inkscape.output.svg.inkscape" marker-end="none" width="41" clip="auto" cursor="auto" stroke="none" filter="none" visibility="visible" kerning="auto" stroke-width="1" font-family="&quot;Arial&quot;,&quot;Helvetica&quot;,sans-serif" flood-opacity="1" clip-rule="nonzero" src="none" height="68.997391" unicode-bidi="normal" sodipodi:version="0.32" stroke-linejoin="miter" stroke-opacity="1" flood-color="rgb(0, 0, 0)" dominant-baseline="auto" marker-start="none" marker-mid="none">
            
          <defs id="svg9.defs4"/>
            
  
          <metadata id="svg9.metadata7">
    
  </metadata>
            
          <g inkscape:groupmode="layer" id="svg9.layer1" transform="translate(-29.5,-42.959476)" inkscape:label="Ebene 1">
                
            <a id="svg9.a3142" transform="matrix(1.0873906,0,0,1,-4.4741999,0)">
                    
              <path transform="translate(11.586889,5.2908993)" style="fill:none;fill-rule:evenodd;stroke:#000000;stroke-width:1px;stroke-linecap:butt;stroke-linejoin:miter;stroke-opacity:1" sodipodi:cx="38.509369" sodipodi:cy="47.36993" sodipodi:rx="8.5197716" id="svg9.path2160" d="M 47.02914 47.36993 A 8.5197716 9.2013531 0 1 1  29.989597,47.36993 A 8.5197716 9.2013531 0 1 1  47.02914 47.36993 z" sodipodi:ry="9.2013531" sodipodi:type="arc"/>
                  
            </a>
                
            <path style="fill:none" sodipodi:cx="43.962021" sodipodi:cy="48.392303" d="M 47.71072 48.392303 A 3.7486994 0 0 1 1  40.213321,48.392303 A 3.7486994 0 0 1 1  47.71072 48.392303 z" id="svg9.path3134" sodipodi:rx="3.7486994" sodipodi:ry="0" sodipodi:type="arc"/>
                
            <path style="fill:none;fill-rule:evenodd;stroke:#000000;stroke-width:1.24319649px;stroke-linecap:butt;stroke-linejoin:miter;stroke-opacity:1" d="M 50,61.33709 C 50,91.363211 50,92.247838 50,92.247838" id="svg9.path3136"/>
                
            <path style="fill:none;fill-rule:evenodd;stroke:#000000;stroke-width:1px;stroke-linecap:butt;stroke-linejoin:miter;stroke-opacity:1" d="M 69.760668,72.362183 C 69.760668,72.362183 69.760668,72.362183 50.239332,72.362183 C 30.239332,72.362183 30.239332,72.362183 30.239332,72.362183 L 30.239332,72.362183" id="svg9.path3138"/>
                
            <path style="fill:none;fill-rule:evenodd;stroke:#000000;stroke-width:1px;stroke-linecap:butt;stroke-linejoin:miter;stroke-opacity:1" d="M 30,111.45687 C 30,111.45687 30,111.45687 50,92.013532 C 70,111.45687 70,111.45687 70,111.45687" id="svg9.path3140"/>
              
          </g>
          
        </svg>
      </g>
    </g>
    <g font-size="13px" stroke-linecap="butt" transform="matrix(1,0,0,1,15,15)" text-rendering="geometricPrecision" font-family="sans-serif" shape-rendering="geometricPrecision" stroke-miterlimit="1.45">
      <text x="500.6284" xml:space="preserve" y="363.8834" clip-path="url(#clipPath2)" stroke="none">vendors</text>
      <path fill="none" stroke-dasharray="6,2" d="M90.0391 429.2659 L100 429.2659 L100 326.1329 L127.3438 326.1329" clip-path="url(#clipPath2)"/>
    </g>
    <g stroke-linecap="butt" transform="matrix(1,0,0,1,15,15)" fill="white" text-rendering="geometricPrecision" shape-rendering="geometricPrecision" stroke-dasharray="6,2" stroke="white" stroke-miterlimit="1.45">
      <path d="M142.3438 326.1329 L126.3438 320.1329 L126.3438 332.1329 Z" stroke="none" clip-path="url(#clipPath2)"/>
      <path fill="none" stroke-dasharray="none" d="M142.3438 326.1329 L126.3438 320.1329 L126.3438 332.1329 Z" clip-path="url(#clipPath2)" stroke="black"/>
      <path fill="none" d="M90.0256 301.1329 L127.3438 301.1329" clip-path="url(#clipPath2)" stroke="black"/>
      <path d="M142.3438 301.1329 L126.3438 295.1329 L126.3438 307.1329 Z" clip-path="url(#clipPath2)" stroke="none"/>
      <path fill="none" stroke-dasharray="none" d="M142.3438 301.1329 L126.3438 295.1329 L126.3438 307.1329 Z" clip-path="url(#clipPath2)" stroke="black"/>
      <path fill="none" d="M90.0293 251.1329 L120 251.1329 L120 181.8165 L127.3438 181.8165" clip-path="url(#clipPath2)" stroke="black"/>
      <path d="M142.3438 181.8165 L126.3438 175.8165 L126.3438 187.8165 Z" clip-path="url(#clipPath2)" stroke="none"/>
      <path fill="none" stroke-dasharray="none" d="M142.3438 181.8165 L126.3438 175.8165 L126.3438 187.8165 Z" clip-path="url(#clipPath2)" stroke="black"/>
      <path fill="none" d="M90.0293 75 L120 75 L120 156.8165 L127.3438 156.8165" clip-path="url(#clipPath2)" stroke="black"/>
      <path d="M142.3438 156.8165 L126.3438 150.8165 L126.3438 162.8165 Z" clip-path="url(#clipPath2)" stroke="none"/>
      <path fill="none" stroke-dasharray="none" d="M142.3438 156.8165 L126.3438 150.8165 L126.3438 162.8165 Z" clip-path="url(#clipPath2)" stroke="black"/>
      <path fill="none" d="M90.0439 25 L120 25" clip-path="url(#clipPath2)" stroke="black"/>
      <path d="M135 25 L119 19 L119 31 Z" clip-path="url(#clipPath2)" stroke="none"/>
      <path fill="none" stroke-dasharray="none" d="M135 25 L119 19 L119 31 Z" clip-path="url(#clipPath2)" stroke="black"/>
      <path fill="none" stroke-dasharray="none" d="M252 25 L269.3074 25 L269.3074 135.9831 L284.2781 135.9831" clip-path="url(#clipPath2)" stroke="black"/>
      <path fill="black" stroke-dasharray="none" d="M245 25 L252 20 L259 25 L252 30 Z" clip-path="url(#clipPath2)" stroke="none"/>
      <path fill="none" stroke-dasharray="none" d="M252 313.6329 L255 313.6329 L255 202.6498 L284.2787 202.6498" clip-path="url(#clipPath2)" stroke="black"/>
      <path fill="black" stroke-dasharray="none" d="M245 313.6329 L252 308.6329 L259 313.6329 L252 318.6329 Z" clip-path="url(#clipPath2)" stroke="none"/>
      <path fill="none" stroke-dasharray="none" d="M252 169.3165 L284.269 169.3165" clip-path="url(#clipPath2)" stroke="black"/>
      <path fill="black" stroke-dasharray="none" d="M245 169.3165 L252 164.3165 L259 169.3165 L252 174.3165 Z" clip-path="url(#clipPath2)" stroke="none"/>
      <path fill="none" stroke-dasharray="none" d="M344.3464 169.3165 L349.2684 169.3165" clip-path="url(#clipPath2)" stroke="black"/>
      <path stroke-dasharray="none" d="M364.2684 169.3165 L348.2684 163.3165 L348.2684 175.3165 Z" clip-path="url(#clipPath2)" stroke="none"/>
      <path fill="none" stroke-dasharray="none" d="M364.2684 169.3165 L348.2684 163.3165 L348.2684 175.3165 Z" clip-path="url(#clipPath2)" stroke="black"/>
      <path fill="none" stroke-dasharray="none" d="M414.3074 190.8458 L414.3074 220.7872" clip-path="url(#clipPath2)" stroke="black"/>
      <path fill="none" d="M444.3464 245.8165 L454.3074 245.8165 L454.3074 230.8165 L566.7554 230.8165 L566.7554 287.2165 L589.1668 287.2165" clip-path="url(#clipPath2)" stroke="black"/>
      <path d="M604.1668 287.2165 L588.1668 281.2165 L588.1668 293.2165 Z" clip-path="url(#clipPath2)" stroke="none"/>
      <path fill="none" stroke-dasharray="none" d="M604.1668 287.2165 L588.1668 281.2165 L588.1668 293.2165 Z" clip-path="url(#clipPath2)" stroke="black"/>
      <path fill="none" stroke-dasharray="none" d="M563.7849 602.0823 L586.9119 602.0823 L586.9119 313.0165 L604.1696 313.0165" clip-path="url(#clipPath2)" stroke="black"/>
      <path fill="black" stroke-dasharray="none" d="M556.7849 602.0823 L563.7849 597.0823 L570.7849 602.0823 L563.7849 607.0823 Z" clip-path="url(#clipPath2)" stroke="none"/>
      <path fill="none" stroke-dasharray="none" d="M563.7944 448.9494 L566.7554 448.9494 L566.7554 304.4165 L604.1668 304.4165" clip-path="url(#clipPath2)" stroke="black"/>
      <path fill="black" stroke-dasharray="none" d="M556.7944 448.9494 L563.7944 443.9494 L570.7944 448.9494 L563.7944 453.9494 Z" clip-path="url(#clipPath2)" stroke="none"/>
      <path fill="none" stroke-dasharray="none" d="M563.787 142.6835 L589.2034 142.6835 L589.2034 278.6165 L604.1741 278.6165" clip-path="url(#clipPath2)" stroke="black"/>
      <path fill="black" stroke-dasharray="none" d="M556.787 142.6835 L563.787 137.6835 L570.787 142.6835 L563.787 147.6835 Z" clip-path="url(#clipPath2)" stroke="none"/>
      <path fill="none" d="M704.2424 295.8165 L719.2034 295.8165" clip-path="url(#clipPath2)" stroke="black"/>
      <path fill="black" d="M723.2034 295.8165 L711.2034 289.8165 L723.2034 295.8165 L711.2034 301.8165 Z" clip-path="url(#clipPath2)" stroke="none"/>
    </g>
    <g text-rendering="geometricPrecision" shape-rendering="geometricPrecision" transform="matrix(1,0,0,1,15,15)">
      <path fill="none" d="M723.2034 295.8165 L711.2034 289.8165 L723.2034 295.8165 L711.2034 301.8165 Z" clip-path="url(#clipPath2)"/>
      <path fill="none" stroke-miterlimit="1.45" d="M9.9609 174.6329 L0 174.6329 L0 429.2659 L29.9707 429.2659" clip-path="url(#clipPath2)" stroke-linecap="butt"/>
      <path fill="none" stroke-miterlimit="1.45" d="M60 196.1622 L60 226.1037" clip-path="url(#clipPath2)" stroke-linecap="butt"/>
      <path fill="none" stroke-miterlimit="1.45" d="M60 153.107 L60 100.0259" clip-path="url(#clipPath2)" stroke-linecap="butt"/>
      <path fill="none" stroke-miterlimit="1.45" d="M444.333 295.8165 L481.7298 295.8165" clip-path="url(#clipPath2)" stroke-linecap="butt"/>
    </g>
    <g stroke-linecap="butt" transform="matrix(1,0,0,1,15,15)" fill="white" text-rendering="geometricPrecision" shape-rendering="geometricPrecision" stroke="white" stroke-miterlimit="1.45">
      <path d="M496.7298 295.8165 L480.7298 289.8165 L480.7298 301.8165 Z" stroke="none" clip-path="url(#clipPath2)"/>
      <path fill="none" d="M496.7298 295.8165 L480.7298 289.8165 L480.7298 301.8165 Z" clip-path="url(#clipPath2)" stroke="black"/>
      <path fill="none" d="M563.8017 295.8165 L604.1571 295.8165" clip-path="url(#clipPath2)" stroke="black"/>
      <path fill="black" d="M556.8017 295.8165 L563.8017 290.8165 L570.8017 295.8165 L563.8017 300.8165 Z" clip-path="url(#clipPath2)" stroke="none"/>
    </g>
  </g>
</svg>
